<svg width="21" height="21" viewBox="0 0 21 21" fill="none" xmlns="http://www.w3.org/2000/svg">
<g opacity="0.5" clip-path="url(#clip0_110_755)">
<path d="M7.99984 18.8334C8.46007 18.8334 8.83317 18.4603 8.83317 18C8.83317 17.5398 8.46007 17.1667 7.99984 17.1667C7.5396 17.1667 7.1665 17.5398 7.1665 18C7.1665 18.4603 7.5396 18.8334 7.99984 18.8334Z" stroke="white" stroke-width="2" stroke-linecap="round" stroke-linejoin="round"/>
<path d="M17.1668 18.8334C17.6271 18.8334 18.0002 18.4603 18.0002 18C18.0002 17.5398 17.6271 17.1667 17.1668 17.1667C16.7066 17.1667 16.3335 17.5398 16.3335 18C16.3335 18.4603 16.7066 18.8334 17.1668 18.8334Z" stroke="white" stroke-width="2" stroke-linecap="round" stroke-linejoin="round"/>
<path d="M1.3335 1.33334H4.66683L6.90016 12.4917C6.97637 12.8753 7.18509 13.22 7.48978 13.4653C7.79448 13.7105 8.17574 13.8408 8.56683 13.8333H16.6668C17.0579 13.8408 17.4392 13.7105 17.7439 13.4653C18.0486 13.22 18.2573 12.8753 18.3335 12.4917L19.6668 5.50001H5.50016" stroke="white" stroke-width="2" stroke-linecap="round" stroke-linejoin="round"/>
</g>
<defs>
<clipPath id="clip0_110_755">
<rect width="20" height="20" fill="white" transform="translate(0.5 0.5)"/>
</clipPath>
</defs>
</svg>
