<svg width="24" height="24" viewBox="0 0 24 24" fill="none" xmlns="http://www.w3.org/2000/svg">
<path d="M17.7184 16.8378C16.2748 16.8721 16.1204 15.7332 15.0853 15.426C14.6784 15.37 14.511 14.8246 14.8116 14.5469C15.4311 13.8555 15.7732 12.9622 15.7732 12.0334C15.7732 9.95283 14.0805 8.26022 12 8.26022C9.91945 8.26022 8.22684 9.95283 8.22684 12.0334C8.22684 12.9671 8.57203 13.8639 9.1988 14.5584C9.48689 14.839 9.31448 15.3712 8.91473 15.426C8.56186 15.4859 8.34741 15.7004 8.07586 15.972C7.16606 17.1123 5.39494 17.1103 4.48744 15.9719C3.88181 15.2245 2.96325 15.2244 2.35748 15.972C2.03447 16.3225 1.16902 17.117 0.806813 16.3486C0.271453 14.9703 0 13.5184 0 12.0334C0 8.84081 1.2517 5.83083 3.52458 3.55795C5.79745 1.28508 8.80744 0.0333748 12 0.0333748C15.1926 0.0333748 18.2025 1.28508 20.4754 3.55795C22.7483 5.83083 24 8.84081 24 12.0334C24 13.5184 23.7285 14.9703 23.1932 16.3486C22.831 17.1169 21.9648 16.3225 21.6426 15.972C21.3152 15.6447 21.0788 15.4082 20.5776 15.4082C19.3635 15.4833 19.309 16.8779 17.7184 16.8378ZM1.32544 16.1472H1.32591H1.32544ZM16.0008 14.6911C16.2673 14.8566 16.4728 15.0621 16.6534 15.2428C17.2611 15.9907 18.1762 15.9904 18.7833 15.2427C19.7558 14.0445 21.5284 14.1345 22.4595 15.3302C22.7978 14.2664 22.9688 13.1605 22.9688 12.0334C22.9688 5.98519 18.0482 1.06462 12 1.06462C5.95181 1.06462 1.03125 5.98519 1.03125 12.0334C1.03125 13.1605 1.20225 14.2664 1.54045 15.3301C2.47631 14.1323 4.24242 14.0454 5.21667 15.2429C5.82239 15.9902 6.74081 15.9903 7.34662 15.2427C7.52728 15.0622 7.73273 14.8566 7.99927 14.6911C7.47717 13.9071 7.19555 12.9854 7.19555 12.0334C7.19555 9.38423 9.35081 7.22901 12 7.22901C14.6491 7.22901 16.8044 9.38428 16.8044 12.0334C16.8044 12.9851 16.5225 13.9074 16.0008 14.6911Z" fill="#FF8051"/>
<path d="M6.2816 8.26022C6.14964 8.26022 6.01769 8.20987 5.917 8.10919L4.48746 6.67959C4.28608 6.47822 4.28608 6.15173 4.48746 5.95036C4.68883 5.74898 5.01532 5.74908 5.21669 5.95036L6.64624 7.37995C6.84761 7.58133 6.84761 7.90781 6.64624 8.10919C6.54555 8.20987 6.4135 8.26022 6.2816 8.26022Z" fill="#FF8051"/>
<path d="M13.4296 5.40108C13.2976 5.40108 13.1657 5.35074 13.065 5.25005C12.8636 5.04867 12.8636 4.72219 13.065 4.52081L14.4946 3.09122C14.696 2.88989 15.0224 2.88989 15.2238 3.09122C15.4252 3.29259 15.4252 3.61908 15.2238 3.82045L13.7942 5.25005C13.6935 5.35074 13.5615 5.40108 13.4296 5.40108Z" fill="#25282B"/>
<path d="M19.1479 12.549C19.016 12.549 18.884 12.4987 18.7834 12.398C18.582 12.1966 18.582 11.8701 18.7834 11.6687L20.2129 10.2391C20.4144 10.0378 20.7408 10.0378 20.9422 10.2391C21.1436 10.4405 21.1436 10.767 20.9422 10.9684L19.5126 12.398C19.4119 12.4987 19.2799 12.549 19.1479 12.549Z" fill="#FF8051"/>
<path d="M5.36619 12.0336C5.36619 12.3183 5.13538 12.5492 4.85061 12.5492C4.1667 12.522 4.16694 11.5451 4.85061 11.5181C5.13538 11.5181 5.36619 11.7489 5.36619 12.0336Z" fill="#25282B"/>
<path d="M9.65501 4.88564C9.65501 5.17036 9.42419 5.40122 9.13943 5.40122C8.45552 5.37408 8.45576 4.39716 9.13943 4.37011C9.42419 4.37006 9.65501 4.60092 9.65501 4.88564Z" fill="#25282B"/>
<path d="M18.2325 7.74478C18.2325 8.0295 18.0017 8.26036 17.7169 8.26036C17.033 8.23322 17.0333 7.25629 17.7169 7.22925C18.0017 7.22925 18.2325 7.46006 18.2325 7.74478Z" fill="#25282B"/>
<path d="M14.6843 15.0866C14.6226 14.9087 14.6627 14.7114 14.789 14.5718L14.8103 14.5483C14.8102 14.5484 14.8101 14.5485 14.81 14.5486C14.0935 15.3481 13.0693 15.8066 12 15.8066C10.9356 15.8066 9.91459 15.3517 9.19876 14.5585L9.21039 14.5712C9.337 14.7108 9.3774 14.9082 9.31581 15.0862C9.25426 15.2643 9.10042 15.3946 8.9147 15.426C8.82714 15.4409 8.74811 15.4653 8.67456 15.4977C9.56636 16.353 10.7597 16.8378 11.9999 16.8378C13.2408 16.8378 14.4335 16.3533 15.3254 15.4978C15.2519 15.4653 15.1728 15.4409 15.0852 15.426C14.8996 15.3946 14.7459 15.2645 14.6843 15.0866Z" fill="#25282B"/>
<path d="M22.5291 16.6322C22.3484 16.5679 22.2039 16.471 22.0712 16.3688C18.6261 25.0582 5.37286 25.0531 1.92858 16.3658C1.53365 16.683 1.0424 16.863 0.806763 16.3486C4.67029 26.5084 19.3326 26.5036 23.1931 16.3486C23.0592 16.6525 22.7945 16.7352 22.5291 16.6322Z" fill="#25282B"/>
</svg>
