<svg width="24" height="24" viewBox="0 0 24 24" fill="none" xmlns="http://www.w3.org/2000/svg">
<path d="M23.4844 9.09576H0.515625C0.230859 9.09576 0 9.32662 0 9.61139V12.8368C0 16.2947 2.05369 19.4091 5.23191 20.7712C6.10636 21.146 6.67139 22.0028 6.67139 22.9543C6.67139 23.239 6.90225 23.4699 7.18702 23.4699H16.813C17.0977 23.4699 17.3286 23.239 17.3286 22.9543C17.3286 22.0028 17.8936 21.146 18.7681 20.7712C21.9463 19.4091 24 16.2947 24 12.8368V9.61139C24 9.32662 23.7691 9.09576 23.4844 9.09576ZM22.9688 10.127V11.955H1.03125V10.127H22.9688ZM18.3619 19.8233C17.2681 20.2921 16.5119 21.2868 16.3364 22.4386H7.66364C7.48814 21.2868 6.73191 20.2921 5.63812 19.8233C2.88548 18.6436 1.09219 15.9709 1.03402 12.9862H22.966C22.9078 15.9709 21.1145 18.6436 18.3619 19.8233Z" fill="#25282B"/>
<path d="M13.1913 5.36174C13.0594 5.36174 12.9274 5.3114 12.8267 5.21071C12.6056 4.9896 12.3121 4.86787 12 4.86787C11.6879 4.86787 11.3944 4.98965 11.1732 5.21071C10.6711 5.67487 9.97934 4.98473 10.444 4.48148C11.302 3.62352 12.698 3.62352 13.5559 4.48148C13.8847 4.78799 13.6324 5.37735 13.1913 5.36174Z" fill="#25282B"/>
<path d="M17.4801 7.18641C17.3481 7.18641 17.2162 7.13611 17.1156 7.03538C16.791 6.71091 16.2631 6.71091 15.9386 7.03538C15.7372 7.23675 15.4107 7.23666 15.2094 7.03538C15.008 6.83396 15.008 6.50747 15.2094 6.30614C15.9359 5.57967 17.1182 5.57967 17.8447 6.30614C18.1735 6.61256 17.9212 7.20202 17.4801 7.18641Z" fill="#25282B"/>
<path d="M8.42602 7.18641C8.29407 7.18641 8.16212 7.13611 8.06148 7.03538C7.73691 6.71091 7.20901 6.71091 6.88449 7.03538C6.68316 7.23675 6.35663 7.23666 6.1553 7.03538C5.95393 6.83396 5.95393 6.50747 6.1553 6.30614C6.88187 5.57967 8.0641 5.57967 8.79066 6.30614C9.1194 6.61256 8.86716 7.20202 8.42602 7.18641Z" fill="#25282B"/>
<path d="M3.43313 7.83271C3.75469 7.73657 3.89339 7.31929 3.69638 7.04915C3.34463 6.54121 3.43983 5.96554 3.64617 5.59617C4.33777 4.43465 5.18424 5.28539 5.4195 4.49339C5.56364 3.79457 6.43716 3.26892 7.11942 3.5115C7.40189 3.60904 7.72908 3.41704 7.78233 3.12337C7.9462 2.13928 9.297 1.66978 10.0285 2.35729C10.2602 2.56992 10.6613 2.5042 10.8132 2.22904C11.2918 1.34001 12.7082 1.33945 13.1868 2.22909C13.3385 2.50453 13.74 2.56968 13.9714 2.35724C14.7024 1.67034 16.0545 2.13876 16.2177 3.12346C16.2703 3.41718 16.5989 3.609 16.8806 3.5114C17.562 3.26896 18.4371 3.79457 18.5805 4.49329C18.6372 4.73685 18.8615 4.90396 19.1103 4.89103C20.1665 4.83248 20.9536 6.05878 20.3035 7.04924C20.1049 7.31868 20.247 7.73723 20.5668 7.83267C21.1039 8.00882 21.4756 8.54821 21.4915 9.09576H22.5221C22.5084 8.30962 22.089 7.54692 21.4248 7.11159C21.9825 5.74884 20.9328 3.99478 19.457 3.87389C19.0846 2.97651 18.0469 2.33976 17.0739 2.4306C16.5787 1.20295 14.9006 0.611948 13.7474 1.2675C12.8729 0.284198 11.127 0.284339 10.2525 1.2675C9.09914 0.611854 7.4212 1.20309 6.92602 2.4306C5.95331 2.33971 4.91536 2.97651 4.54303 3.87389C3.06699 3.99478 2.0176 5.74903 2.57503 7.11154C1.91077 7.54687 1.49133 8.30962 1.47778 9.09576H2.50842C2.52417 8.54817 2.89594 8.00878 3.43313 7.83271Z" fill="#FF8051"/>
</svg>
