<svg width="25" height="24" viewBox="0 0 25 24" fill="none" xmlns="http://www.w3.org/2000/svg">
<g clip-path="url(#clip0_277_3458)">
<path d="M24.0975 7.05607C24.0412 5.78085 23.835 4.90416 23.5396 4.14449C23.2349 3.33812 22.766 2.61617 22.1518 2.01602C21.5516 1.40652 20.8249 0.932921 20.0279 0.632936C19.2638 0.337529 18.3917 0.131312 17.1165 0.0750879C15.8317 0.0141019 15.4239 0 12.1654 0C8.90698 0 8.49913 0.0141019 7.21915 0.0703262C5.94394 0.126551 5.06724 0.332951 4.30776 0.628174C3.5012 0.932922 2.77926 1.40176 2.1791 2.01602C1.56961 2.61617 1.09619 3.34288 0.796022 4.13991C0.500615 4.90416 0.294398 5.77609 0.238174 7.0513C0.177188 8.33604 0.163086 8.7439 0.163086 12.0023C0.163086 15.2608 0.177188 15.6686 0.233412 16.9486C0.289637 18.2238 0.496037 19.1005 0.791444 19.8602C1.09619 20.6666 1.56961 21.3885 2.1791 21.9887C2.77926 22.5982 3.50596 23.0718 4.30299 23.3718C5.06724 23.6672 5.93918 23.8734 7.21457 23.9296C8.49436 23.986 8.9024 23.9999 12.1609 23.9999C15.4193 23.9999 15.8272 23.986 17.1071 23.9296C18.3823 23.8734 19.259 23.6672 20.0185 23.3718C21.6315 22.7482 22.9067 21.4729 23.5303 19.8602C23.8255 19.096 24.0319 18.2238 24.0881 16.9486C24.1443 15.6686 24.1584 15.2608 24.1584 12.0023C24.1584 8.7439 24.1537 8.33604 24.0975 7.05607ZM21.9362 16.8549C21.8846 18.027 21.6877 18.6599 21.5236 19.0819C21.1203 20.1274 20.2905 20.9572 19.2449 21.3605C18.823 21.5246 18.1855 21.7215 17.0179 21.7729C15.7521 21.8293 15.3724 21.8433 12.1702 21.8433C8.96797 21.8433 8.58355 21.8293 7.32226 21.7729C6.15016 21.7215 5.51722 21.5246 5.09526 21.3605C4.57496 21.1682 4.10136 20.8634 3.71694 20.4649C3.31843 20.0758 3.01368 19.6069 2.82138 19.0866C2.65729 18.6647 2.46041 18.027 2.40895 16.8596C2.35254 15.5937 2.33862 15.2139 2.33862 12.0117C2.33862 8.80946 2.35254 8.42505 2.40895 7.16394C2.46041 5.99183 2.65729 5.3589 2.82138 4.93694C3.01368 4.41645 3.31843 3.94303 3.7217 3.55843C4.1107 3.15992 4.57954 2.85517 5.10002 2.66306C5.52198 2.49896 6.15968 2.30209 7.32702 2.25044C8.59289 2.19422 8.97273 2.18011 12.1748 2.18011C15.3818 2.18011 15.7614 2.19422 17.0227 2.25044C18.1948 2.30209 18.8277 2.49896 19.2497 2.66306C19.77 2.85517 20.2436 3.15992 20.628 3.55843C21.0265 3.94761 21.3313 4.41645 21.5236 4.93694C21.6877 5.3589 21.8846 5.99641 21.9362 7.16394C21.9924 8.42981 22.0065 8.80946 22.0065 12.0117C22.0065 15.2139 21.9924 15.589 21.9362 16.8549Z" fill="#25282B"/>
<path d="M12.1658 5.8371C8.76208 5.8371 6.00049 8.5985 6.00049 12.0024C6.00049 15.4062 8.76208 18.1676 12.1658 18.1676C15.5696 18.1676 18.331 15.4062 18.331 12.0024C18.331 8.5985 15.5696 5.8371 12.1658 5.8371ZM12.1658 16.0016C9.95762 16.0016 8.1665 14.2107 8.1665 12.0024C8.1665 9.79405 9.95762 8.00311 12.1658 8.00311C14.3741 8.00311 16.165 9.79405 16.165 12.0024C16.165 14.2107 14.3741 16.0016 12.1658 16.0016Z" fill="#25282B"/>
<path d="M20.0141 5.5933C20.0141 6.38813 19.3696 7.03261 18.5746 7.03261C17.7797 7.03261 17.1353 6.38813 17.1353 5.5933C17.1353 4.79828 17.7797 4.15399 18.5746 4.15399C19.3696 4.15399 20.0141 4.79828 20.0141 5.5933Z" fill="#25282B"/>
</g>
<defs>
<clipPath id="clip0_277_3458">
<rect width="24" height="24" fill="white" transform="translate(0.121094)"/>
</clipPath>
</defs>
</svg>
