<svg width="148" height="138" viewBox="0 0 148 138" fill="none" xmlns="http://www.w3.org/2000/svg">
<path d="M119.23 53.29C119.23 53.29 108.94 12.72 59.61 22.23C59.61 22.23 98.67 16.79 112.84 54.22L119.23 53.29Z" fill="#FF8051"/>
<path d="M9 73.09L28.1 75.52L9.10001 81.03L74.16 78.51C74.16 78.51 79.18 79.31 82.87 82.85C86.56 86.4 89.15 85.57 93.15 85.13C97.16 84.69 117.73 83.59 117.73 83.59C117.73 83.59 119.04 82.28 117.73 81.82C116.42 81.36 108.59 82.19 106.84 80.74C105.09 79.29 118.56 79.09 118.31 77.34C118.06 75.59 100.66 76.32 99.94 75.52C99.22 74.73 117.8 72.7 117.72 70.95C117.72 70.95 91.76 68.36 88.99 68.89C86.22 69.42 79.76 74.26 75.64 75.39C71.54 76.52 9 73.09 9 73.09Z" fill="#FF8051"/>
<path d="M137.58 53.51L117.74 56.13L139.9 60.51L81.12 58.7C81.12 58.7 77.51 59.22 73.6 63.13C69.69 67.04 60.65 70.98 52.65 68.88C44.65 66.78 35.37 64.55 35.83 56.01C36.28 47.47 48.17 44.5 57.44 44.36C66.7 44.23 78.29 55.19 78.29 55.19L137.58 53.51Z" fill="#FF8051"/>
<path d="M63.36 2.94C29.05 2.94 3.96998 42.16 8.06998 72.22L16.14 72.21C16.14 28.75 42.45 8.76 63.36 2.94Z" fill="#FF8051"/>
<path d="M138.58 52.53C135.65 52.6 82.67 54.78 82.67 54.78C82.67 54.78 78.6001 54.9 76.5301 52.5C74.2501 49.86 66.58 44.46 56.72 44.46C47.05 44.46 35.8 48.41 35.8 56.69C35.8 64.97 47.05 68.92 56.72 68.92C66.58 68.92 74.2501 63.52 76.5301 60.88C78.6001 58.48 82.67 58.6 82.67 58.6C82.67 58.6 136.97 60.46 139.9 60.53C139.9 60.53 141.16 73.04 139.35 81.83" stroke="#25282B" stroke-width="1.9502" stroke-miterlimit="10" stroke-linecap="round" stroke-linejoin="round"/>
<path d="M138.58 52.53C131.73 23 105.26 1 73.65 1C36.84 1 7 30.84 7 67.65C7 69.46 7.07002 71.26 7.21002 73.03" stroke="#25282B" stroke-width="1.9502" stroke-miterlimit="10"/>
<path d="M8.06995 81.08C8.06995 81.08 72.52 78.62 74.17 78.52C75.82 78.41 77.9599 79.2 79.9799 80.76C81.9799 82.31 85.5899 85.08 88.7899 85.14C88.8699 85.14 88.94 85.14 89.02 85.14L119.51 83.5" stroke="#25282B" stroke-width="1.9502" stroke-miterlimit="10" stroke-linecap="round" stroke-linejoin="round"/>
<path d="M119.5 70.53L89.0099 68.89C88.9399 68.89 88.86 68.88 88.78 68.89C85.58 68.95 81.9699 71.72 79.9699 73.27C77.9499 74.84 75.8099 75.62 74.1599 75.51C72.5099 75.4 7.20996 73.02 7.20996 73.02" stroke="#25282B" stroke-width="1.9502" stroke-miterlimit="10" stroke-linecap="round" stroke-linejoin="round"/>
<path d="M88.1699 74.73H119.23" stroke="#25282B" stroke-width="1.9502" stroke-miterlimit="10" stroke-linecap="round" stroke-linejoin="round"/>
<path d="M88.1699 79.3H119.23" stroke="#25282B" stroke-width="1.9502" stroke-miterlimit="10" stroke-linecap="round" stroke-linejoin="round"/>
<path d="M115.52 44.38C116.34 45.85 117.08 47.37 117.74 48.93" stroke="#25282B" stroke-width="1.9502" stroke-miterlimit="10" stroke-linecap="round" stroke-linejoin="round"/>
<path d="M26.66 66.21C27.29 40.57 48.2701 19.98 74.0601 19.98C90.1001 19.98 104.27 27.94 112.85 40.13" stroke="#25282B" stroke-width="1.9502" stroke-miterlimit="10" stroke-linecap="round" stroke-linejoin="round"/>
<path d="M74.07 56.03C74.07 56.03 63.69 43.22 47.62 49.19" stroke="#25282B" stroke-width="1.9502" stroke-miterlimit="10" stroke-linecap="round" stroke-linejoin="round"/>
<path d="M137.23 28.37V33.6" stroke="#25282B" stroke-width="1.1472" stroke-miterlimit="10" stroke-linecap="round" stroke-linejoin="round"/>
<path d="M139.9 30.98H134.76" stroke="#25282B" stroke-width="1.1472" stroke-miterlimit="10" stroke-linecap="round" stroke-linejoin="round"/>
<path d="M25.27 7.07001V12.3" stroke="#25282B" stroke-width="1.1472" stroke-miterlimit="10" stroke-linecap="round" stroke-linejoin="round"/>
<path d="M27.95 9.67999H22.8" stroke="#25282B" stroke-width="1.1472" stroke-miterlimit="10" stroke-linecap="round" stroke-linejoin="round"/>
<path d="M16.3989 106.312C16.3989 109.789 16.5909 111.528 16.9749 111.528C17.3589 111.528 17.8709 111.091 18.5109 110.216C19.1722 109.32 19.8122 108.179 20.4309 106.792C21.0709 105.384 21.4549 104.68 21.5829 104.68C21.7322 104.68 21.8069 104.765 21.8069 104.936C21.8069 105.533 21.4442 106.621 20.7189 108.2C19.1615 111.507 17.7642 113.16 16.5269 113.16C16.0575 113.16 15.6309 113.107 15.2469 113C14.8629 112.872 14.6282 112.755 14.5429 112.648C14.3295 112.392 14.2229 111.453 14.2229 109.832C14.2229 105.992 14.3509 102.877 14.6069 100.488C13.3695 101.704 12.2389 103.091 11.2149 104.648C11.6629 106.355 11.8869 107.837 11.8869 109.096C11.8869 110.333 11.6415 111.293 11.1509 111.976C10.6815 112.659 10.0842 113 9.35888 113C8.48421 113 8.04688 112.157 8.04688 110.472C8.04688 109.32 8.50554 107.795 9.42288 105.896C8.99621 104.403 8.37754 102.941 7.56688 101.512C7.22554 103.453 6.70288 105.437 5.99888 107.464C5.29488 109.491 4.56954 111.005 3.82288 112.008C3.07621 112.989 2.19088 113.48 1.16688 113.48C0.420208 113.48 0.046875 113.192 0.046875 112.616C0.046875 112.147 0.206875 111.816 0.526875 111.624C0.846875 111.432 1.22021 111.293 1.64688 111.208C2.09488 111.101 2.38288 110.984 2.51088 110.856C3.34288 109.981 4.12154 108.488 4.84688 106.376C5.59354 104.264 6.13754 102.099 6.47888 99.88C5.56154 98.6853 5.10288 97.8 5.10288 97.224C5.10288 96.6267 5.25221 96.104 5.55088 95.656C5.87088 95.208 6.38288 94.984 7.08688 94.984C7.30021 94.984 7.48154 95.2613 7.63088 95.816C7.78021 96.3493 7.85488 96.9147 7.85488 97.512C9.15621 99.4107 10.1482 101.373 10.8309 103.4C12.0255 101.437 13.3909 99.624 14.9269 97.96C15.5882 93.928 16.3562 91.912 17.2309 91.912C17.5295 91.912 17.8389 92.136 18.1589 92.584C18.5002 93.032 18.6709 93.4907 18.6709 93.96C18.6709 95.4107 18.0415 96.8827 16.7829 98.376C16.5269 100.189 16.3989 102.835 16.3989 106.312ZM9.74288 107.272C9.23088 108.403 8.97488 109.416 8.97488 110.312C8.97488 111.187 9.08154 111.624 9.29488 111.624C9.50821 111.624 9.66821 111.368 9.77488 110.856C9.88154 110.323 9.93488 109.768 9.93488 109.192C9.93488 108.616 9.87088 107.976 9.74288 107.272ZM29.8826 113.16C29.0506 113.16 28.4213 112.989 27.9946 112.648C27.8453 112.499 27.7706 112.125 27.7706 111.528C27.7706 110.909 27.792 110.088 27.8346 109.064C27.28 110.451 26.7253 111.485 26.1706 112.168C25.6373 112.829 24.944 113.16 24.0906 113.16C23.2373 113.16 22.4906 112.765 21.8506 111.976C21.2106 111.165 20.8906 109.907 20.8906 108.2C20.8906 106.472 21.3706 104.947 22.3306 103.624C23.312 102.301 24.592 101.64 26.1706 101.64C26.8533 101.64 27.6213 102.088 28.4746 102.984C28.6453 102.749 28.944 102.472 29.3706 102.152C29.8186 101.811 30.192 101.64 30.4906 101.64C30.8106 101.64 30.9706 102.045 30.9706 102.856C30.9706 103.069 30.9066 103.485 30.7786 104.104C30.672 104.723 30.544 105.171 30.3946 105.448C30.2026 105.939 30.1066 107.677 30.1066 110.664C30.1066 111.24 30.1706 111.528 30.2986 111.528C30.6613 111.507 31.1626 111.059 31.8026 110.184C32.4426 109.288 33.072 108.147 33.6906 106.76C34.3306 105.373 34.7146 104.68 34.8426 104.68C34.992 104.68 35.0666 104.765 35.0666 104.936C35.0666 105.533 34.7573 106.483 34.1386 107.784C32.4533 111.368 31.0346 113.16 29.8826 113.16ZM25.9786 102.92C25.3813 102.92 24.7413 103.368 24.0586 104.264C23.3973 105.139 23.0666 106.173 23.0666 107.368C23.0666 108.563 23.2373 109.544 23.5786 110.312C23.9413 111.08 24.4106 111.464 24.9866 111.464C25.6906 111.464 26.7253 109.704 28.0906 106.184C28.112 106.013 28.1333 105.725 28.1546 105.32C28.1973 104.893 28.2293 104.573 28.2506 104.36C28.0586 104.019 27.7173 103.699 27.2266 103.4C26.7573 103.08 26.3413 102.92 25.9786 102.92ZM35.7966 111.272L35.8286 112.264C35.8286 112.861 35.658 113.16 35.3166 113.16C34.8046 113.16 34.314 113.096 33.8446 112.968C33.3753 112.819 33.1406 112.627 33.1406 112.392C33.1406 112.136 33.194 111.293 33.3006 109.864C33.4286 108.413 33.4926 107.325 33.4926 106.6V104.712C33.4926 103.688 33.5993 103.069 33.8126 102.856C34.026 102.643 34.3993 102.333 34.9326 101.928C35.4873 101.523 35.882 101.32 36.1166 101.32C36.3726 101.32 36.5326 101.363 36.5966 101.448C36.6606 101.533 36.6926 101.693 36.6926 101.928C36.6926 103.059 36.4793 104.125 36.0526 105.128C35.946 106.344 35.8926 107.187 35.8926 107.656C37.0233 105.544 37.8126 104.157 38.2606 103.496C39.05 102.259 39.7646 101.64 40.4046 101.64C40.81 101.64 41.1833 101.8 41.5246 102.12C41.8873 102.44 42.0686 102.835 42.0686 103.304C42.0686 103.773 42.058 104.221 42.0366 104.648C42.0366 105.053 42.026 105.373 42.0046 105.608C41.9833 105.843 41.9726 105.992 41.9726 106.056C42.058 105.885 42.4206 105.405 43.0606 104.616C43.7006 103.827 44.1273 103.315 44.3406 103.08C44.5753 102.845 44.8206 102.611 45.0766 102.376C45.5673 101.885 46.0046 101.64 46.3886 101.64C46.794 101.64 47.1673 101.789 47.5086 102.088C47.8713 102.387 48.0526 102.76 48.0526 103.208C48.0526 104.147 47.946 105.533 47.7326 107.368C47.5406 109.181 47.4446 110.333 47.4446 110.824C47.4446 111.293 47.5086 111.528 47.6366 111.528C47.9993 111.507 48.5006 111.059 49.1406 110.184C49.7806 109.288 50.41 108.147 51.0286 106.76C51.6686 105.373 52.0526 104.68 52.1806 104.68C52.33 104.68 52.4046 104.765 52.4046 104.936C52.4046 105.533 52.0953 106.483 51.4766 107.784C49.7913 111.368 48.3726 113.16 47.2206 113.16C46.4953 113.16 45.9193 112.989 45.4926 112.648C45.3433 112.499 45.2686 112.115 45.2686 111.496C45.2686 110.856 45.322 109.832 45.4286 108.424C45.5566 106.995 45.6206 105.928 45.6206 105.224C45.6206 104.52 45.5033 104.168 45.2686 104.168C44.9913 104.168 44.3833 104.637 43.4446 105.576C42.5273 106.515 42.0366 107.176 41.9726 107.56C41.8446 108.285 41.7806 109.853 41.7806 112.264C41.7806 112.861 41.6206 113.16 41.3006 113.16C40.81 113.16 40.3406 113.096 39.8926 112.968C39.466 112.819 39.2526 112.627 39.2526 112.392C39.2526 112.136 39.3166 111.08 39.4446 109.224C39.5726 107.368 39.6366 106.067 39.6366 105.32C39.6366 104.552 39.5086 104.168 39.2526 104.168C39.018 104.168 38.4313 104.904 37.4926 106.376C36.554 107.827 36.0313 108.84 35.9246 109.416C35.8393 109.992 35.7966 110.611 35.7966 111.272ZM59.4764 113.16C58.6444 113.16 58.015 112.989 57.5884 112.648C57.439 112.499 57.3644 112.125 57.3644 111.528C57.3644 110.909 57.3857 110.088 57.4284 109.064C56.8737 110.451 56.319 111.485 55.7644 112.168C55.231 112.829 54.5377 113.16 53.6844 113.16C52.831 113.16 52.0844 112.765 51.4444 111.976C50.8044 111.165 50.4844 109.907 50.4844 108.2C50.4844 106.472 50.9644 104.947 51.9244 103.624C52.9057 102.301 54.1857 101.64 55.7644 101.64C56.447 101.64 57.215 102.088 58.0684 102.984C58.239 102.749 58.5377 102.472 58.9644 102.152C59.4124 101.811 59.7857 101.64 60.0844 101.64C60.4044 101.64 60.5644 102.045 60.5644 102.856C60.5644 103.069 60.5004 103.485 60.3724 104.104C60.2657 104.723 60.1377 105.171 59.9884 105.448C59.7964 105.939 59.7004 107.677 59.7004 110.664C59.7004 111.24 59.7644 111.528 59.8924 111.528C60.255 111.507 60.7564 111.059 61.3964 110.184C62.0364 109.288 62.6657 108.147 63.2844 106.76C63.9244 105.373 64.3084 104.68 64.4364 104.68C64.5857 104.68 64.6604 104.765 64.6604 104.936C64.6604 105.533 64.351 106.483 63.7324 107.784C62.047 111.368 60.6284 113.16 59.4764 113.16ZM55.5724 102.92C54.975 102.92 54.335 103.368 53.6524 104.264C52.991 105.139 52.6604 106.173 52.6604 107.368C52.6604 108.563 52.831 109.544 53.1724 110.312C53.535 111.08 54.0044 111.464 54.5804 111.464C55.2844 111.464 56.319 109.704 57.6844 106.184C57.7057 106.013 57.727 105.725 57.7484 105.32C57.791 104.893 57.823 104.573 57.8444 104.36C57.6524 104.019 57.311 103.699 56.8204 103.4C56.351 103.08 55.935 102.92 55.5724 102.92ZM82.2294 107.72C82.3787 107.507 82.592 107.133 82.8694 106.6C83.552 105.384 83.9574 104.776 84.0854 104.776C84.2347 104.776 84.3094 104.861 84.3094 105.032C84.3094 106.077 83.7654 107.4 82.6774 109C80.7147 111.88 78.1014 113.32 74.8374 113.32C73.92 113.32 73.0774 113.107 72.3094 112.68C71.5414 112.253 70.9334 111.709 70.4854 111.048C69.568 109.704 69.1094 108.296 69.1094 106.824C69.1094 103.112 70.0694 100.125 71.9894 97.864C73.9307 95.5813 76.224 94.44 78.8694 94.44C79.872 94.44 80.6934 94.7387 81.3334 95.336C81.9734 95.912 82.2934 96.648 82.2934 97.544C82.2934 98.44 82.0694 99.272 81.6214 100.04C81.1734 100.808 80.6294 101.192 79.9894 101.192C79.3707 101.192 79.0614 101.021 79.0614 100.68C79.0614 100.296 79.264 99.8587 79.6694 99.368C80.096 98.8773 80.3094 98.3867 80.3094 97.896C80.3094 96.3813 79.4987 95.624 77.8774 95.624C76.2774 95.624 74.8267 96.7013 73.5254 98.856C72.224 101.011 71.5734 103.229 71.5734 105.512C71.5734 107.091 72.0214 108.499 72.9174 109.736C73.8134 110.952 75.072 111.56 76.6934 111.56C78.6134 111.56 80.4587 110.28 82.2294 107.72ZM92.3129 106.056C93.1662 105.779 93.7529 105.544 94.0729 105.352C94.4142 105.139 94.6702 104.979 94.8409 104.872L95.2249 104.648C95.3315 104.584 95.4169 104.552 95.4809 104.552C95.6515 104.552 95.7369 104.648 95.7369 104.84C95.7369 105.032 95.4062 105.373 94.7449 105.864C94.0835 106.333 93.2622 106.76 92.2809 107.144C92.1315 108.936 91.5662 110.387 90.5849 111.496C89.6035 112.605 88.2062 113.16 86.3929 113.16C85.0702 113.16 84.0569 112.637 83.3529 111.592C82.6489 110.525 82.2969 109.288 82.2969 107.88C82.2969 106.451 82.7129 105.107 83.5449 103.848C84.3982 102.589 85.4862 101.96 86.8089 101.96C87.4062 101.533 88.1102 101.32 88.9209 101.32C89.7529 101.32 90.5209 101.757 91.2249 102.632C91.9289 103.507 92.2915 104.648 92.3129 106.056ZM90.2329 107.688L89.0809 107.752C88.0995 107.752 87.2675 107.464 86.5849 106.888C85.9022 106.291 85.5609 105.64 85.5609 104.936C85.5609 104.232 85.6782 103.624 85.9129 103.112C84.9955 103.837 84.5369 105.267 84.5369 107.4C84.5369 108.424 84.7502 109.405 85.1769 110.344C85.6035 111.261 86.2755 111.72 87.1929 111.72C88.1102 111.72 88.8249 111.336 89.3369 110.568C89.8489 109.779 90.1475 108.819 90.2329 107.688ZM88.2489 102.376C87.9075 102.376 87.6409 102.536 87.4489 102.856C87.2569 103.155 87.1609 103.485 87.1609 103.848C87.1609 104.637 87.4275 105.277 87.9609 105.768C88.5155 106.259 89.1555 106.504 89.8809 106.504H90.2649C90.2222 105.459 90.0409 104.509 89.7209 103.656C89.4222 102.803 88.9315 102.376 88.2489 102.376ZM103.969 106.056C104.822 105.779 105.409 105.544 105.729 105.352C106.07 105.139 106.326 104.979 106.497 104.872L106.881 104.648C106.988 104.584 107.073 104.552 107.137 104.552C107.308 104.552 107.393 104.648 107.393 104.84C107.393 105.032 107.062 105.373 106.401 105.864C105.74 106.333 104.918 106.76 103.937 107.144C103.788 108.936 103.222 110.387 102.241 111.496C101.26 112.605 99.8625 113.16 98.0491 113.16C96.7265 113.16 95.7131 112.637 95.0091 111.592C94.3051 110.525 93.9531 109.288 93.9531 107.88C93.9531 106.451 94.3691 105.107 95.2011 103.848C96.0545 102.589 97.1425 101.96 98.4651 101.96C99.0625 101.533 99.7665 101.32 100.577 101.32C101.409 101.32 102.177 101.757 102.881 102.632C103.585 103.507 103.948 104.648 103.969 106.056ZM101.889 107.688L100.737 107.752C99.7558 107.752 98.9238 107.464 98.2411 106.888C97.5585 106.291 97.2171 105.64 97.2171 104.936C97.2171 104.232 97.3345 103.624 97.5691 103.112C96.6518 103.837 96.1931 105.267 96.1931 107.4C96.1931 108.424 96.4065 109.405 96.8331 110.344C97.2598 111.261 97.9318 111.72 98.8491 111.72C99.7665 111.72 100.481 111.336 100.993 110.568C101.505 109.779 101.804 108.819 101.889 107.688ZM99.9051 102.376C99.5638 102.376 99.2971 102.536 99.1051 102.856C98.9131 103.155 98.8171 103.485 98.8171 103.848C98.8171 104.637 99.0838 105.277 99.6171 105.768C100.172 106.259 100.812 106.504 101.537 106.504H101.921C101.878 105.459 101.697 104.509 101.377 103.656C101.078 102.803 100.588 102.376 99.9051 102.376ZM115.913 114.12L116.777 114.024C116.948 114.024 117.033 114.109 117.033 114.28C117.033 114.579 116.831 114.803 116.425 114.952C116.02 115.101 115.561 115.176 115.049 115.176C114.089 115.176 113.279 114.792 112.617 114.024C111.977 113.256 111.081 111.837 109.929 109.768C109.652 109.32 109.513 108.979 109.513 108.744C109.513 108.424 109.961 108.051 110.857 107.624C112.308 106.877 113.033 105.939 113.033 104.808C113.033 104.488 112.916 104.221 112.681 104.008C112.468 103.773 112.18 103.656 111.817 103.656C111.305 103.656 110.697 104.264 109.993 105.48C109.289 106.675 108.809 107.805 108.553 108.872C108.319 109.917 108.201 111.048 108.201 112.264C108.201 112.861 108.031 113.16 107.689 113.16C107.199 113.16 106.729 113.096 106.281 112.968C105.833 112.819 105.609 112.637 105.609 112.424C105.609 112.189 105.695 111.176 105.865 109.384C106.036 107.571 106.132 106.269 106.153 105.48C106.239 101.128 106.495 97.8 106.921 95.496C106.985 95.304 107.273 94.9733 107.785 94.504C108.319 94.0347 108.745 93.8 109.065 93.8C109.385 93.8 109.535 94.2053 109.513 95.016C109.513 95.8053 109.343 97.512 109.001 100.136C108.66 102.76 108.447 105.16 108.361 107.336C108.745 105.971 109.353 104.68 110.185 103.464C111.039 102.248 111.892 101.64 112.745 101.64C114.196 101.64 114.921 102.344 114.921 103.752C114.921 104.691 114.644 105.544 114.089 106.312C113.535 107.059 112.788 107.667 111.849 108.136C111.657 108.221 111.561 108.317 111.561 108.424C111.561 108.531 111.593 108.637 111.657 108.744C113.001 111.112 114.143 112.776 115.081 113.736C115.337 113.992 115.615 114.12 115.913 114.12ZM117.762 97.352C117.762 96.968 117.965 96.6373 118.37 96.36C118.775 96.0827 119.138 95.944 119.458 95.944C120.034 95.944 120.322 96.2747 120.322 96.936C120.322 97.5973 120.151 98.1733 119.81 98.664C119.469 99.1333 118.989 99.368 118.37 99.368C117.965 99.368 117.762 98.696 117.762 97.352ZM118.69 113.16C117.858 113.16 117.229 112.989 116.802 112.648C116.653 112.499 116.578 111.965 116.578 111.048C116.578 110.131 116.642 108.605 116.77 106.472C116.919 104.317 117.047 103.155 117.154 102.984C117.261 102.813 117.591 102.493 118.146 102.024C118.701 101.555 119.127 101.32 119.426 101.32C119.746 101.32 119.906 101.725 119.906 102.536C119.906 102.749 119.842 103.165 119.714 103.784C119.607 104.403 119.479 104.851 119.33 105.128C119.053 105.832 118.914 107.677 118.914 110.664C118.914 111.24 118.978 111.528 119.106 111.528C119.469 111.507 119.97 111.059 120.61 110.184C121.25 109.288 121.879 108.147 122.498 106.76C123.138 105.373 123.522 104.68 123.65 104.68C123.799 104.68 123.874 104.765 123.874 104.936C123.874 105.533 123.565 106.483 122.946 107.784C121.261 111.368 119.842 113.16 118.69 113.16ZM124.668 111.272L124.7 112.264C124.7 112.861 124.529 113.16 124.188 113.16C123.676 113.16 123.185 113.096 122.716 112.968C122.247 112.819 122.012 112.627 122.012 112.392C122.012 112.136 122.065 111.293 122.172 109.864C122.3 108.413 122.364 107.325 122.364 106.6V104.712C122.364 103.688 122.471 103.069 122.684 102.856C122.897 102.643 123.271 102.333 123.804 101.928C124.359 101.523 124.753 101.32 124.988 101.32C125.244 101.32 125.404 101.363 125.468 101.448C125.532 101.533 125.564 101.693 125.564 101.928C125.564 103.059 125.351 104.125 124.924 105.128C124.817 106.344 124.764 107.187 124.764 107.656C124.849 107.528 125.297 106.803 126.108 105.48C126.919 104.157 127.601 103.187 128.156 102.568C128.732 101.949 129.244 101.64 129.692 101.64C130.14 101.64 130.535 101.789 130.876 102.088C131.239 102.387 131.42 102.76 131.42 103.208C131.42 104.147 131.313 105.533 131.1 107.368C130.908 109.181 130.812 110.333 130.812 110.824C130.812 111.293 130.876 111.528 131.004 111.528C131.367 111.507 131.868 111.059 132.508 110.184C133.148 109.288 133.777 108.147 134.396 106.76C135.036 105.373 135.42 104.68 135.548 104.68C135.697 104.68 135.772 104.765 135.772 104.936C135.772 105.533 135.463 106.483 134.844 107.784C133.159 111.368 131.74 113.16 130.588 113.16C129.756 113.16 129.127 112.989 128.7 112.648C128.551 112.499 128.476 112.115 128.476 111.496C128.476 110.856 128.529 109.832 128.636 108.424C128.764 106.995 128.828 105.928 128.828 105.224C128.828 104.52 128.7 104.168 128.444 104.168C128.209 104.168 127.569 104.904 126.524 106.376C125.479 107.827 124.924 108.755 124.86 109.16C124.732 109.907 124.668 110.611 124.668 111.272ZM141.375 108.104C140.714 109.853 140.095 111.133 139.519 111.944C138.964 112.755 138.228 113.16 137.311 113.16C136.394 113.16 135.615 112.765 134.975 111.976C134.356 111.187 134.047 109.928 134.047 108.2C134.047 106.472 134.527 104.947 135.487 103.624C136.468 102.301 137.748 101.64 139.327 101.64C139.647 101.64 140.031 101.779 140.479 102.056C140.927 102.312 141.322 102.632 141.663 103.016C141.727 102.803 142.036 102.472 142.591 102.024C143.146 101.555 143.572 101.32 143.871 101.32C144.191 101.32 144.351 101.779 144.351 102.696C144.351 103.613 144.159 104.424 143.775 105.128C143.562 106.557 143.444 107.88 143.423 109.096C145.514 106.451 146.623 105.053 146.751 104.904C146.9 104.755 147.028 104.68 147.135 104.68C147.348 104.68 147.455 104.787 147.455 105C147.455 105.128 147.412 105.267 147.327 105.416C146.644 106.419 145.3 108.179 143.295 110.696C143.167 113.235 143.082 114.963 143.039 115.88C142.932 118.589 142.548 120.488 141.887 121.576C141.247 122.685 140.095 123.24 138.431 123.24C137.706 123.24 137.023 123.016 136.383 122.568C135.764 122.141 135.455 121.384 135.455 120.296C135.455 119.229 135.86 118.131 136.671 117C137.503 115.869 139.007 114.131 141.183 111.784L141.375 108.104ZM139.135 102.792C138.538 102.792 137.898 103.261 137.215 104.2C136.554 105.117 136.223 106.184 136.223 107.4C136.223 108.595 136.394 109.576 136.735 110.344C137.098 111.091 137.546 111.464 138.079 111.464C138.612 111.464 139.124 111.027 139.615 110.152C140.106 109.277 140.735 107.773 141.503 105.64C141.546 104.915 141.567 104.456 141.567 104.264C141.396 103.944 141.044 103.624 140.511 103.304C139.978 102.963 139.519 102.792 139.135 102.792ZM141.087 113.288C138.655 115.912 137.439 118.013 137.439 119.592C137.439 120.317 137.567 120.915 137.823 121.384C138.079 121.853 138.431 122.088 138.879 122.088C139.562 122.088 140.042 121.715 140.319 120.968C140.596 120.221 140.799 118.707 140.927 116.424L141.087 113.288Z" fill="#25282B"/>
<g opacity="0.7">
<path d="M27.26 125.542H28.8709V124.055H27.26V125.542ZM29.8126 125.542H31.4235V124.055H29.8126V125.542ZM28.5487 136H30.11V126.583H28.5487V136ZM44.2609 134.563C43.9882 134.563 43.8148 134.364 43.8148 134.092V130.473H42.0304L44.4839 126.583H42.7739L40.4196 130.473H39.1556V126.583H37.5943V130.473H36.3304L33.9513 126.583H32.2413L34.7196 130.473H32.9352V134.092C32.9352 134.364 32.7617 134.563 32.4643 134.563H32.1669V136H32.9352C33.9265 136 34.4965 135.43 34.4965 134.389V131.886H37.5943V136H39.1556V131.886H42.2287V134.389C42.2287 135.43 42.8235 136 43.79 136H44.583V134.563H44.2609ZM53.1578 136H54.8183L51.0265 126.583H49.1183L45.3265 136H46.9622L47.8048 133.819H52.3152L53.1578 136ZM48.35 132.431L50.06 128.02L51.77 132.431H48.35ZM69.3161 133.745C69.2417 134.463 69.0187 134.835 68.5726 134.835C68.2752 134.835 67.8043 134.587 67.2096 134.166C67.953 133.323 68.4735 132.258 68.7461 131.019L67.3583 130.721C67.1848 131.737 66.7635 132.63 66.1687 133.323C65.5243 132.778 64.7809 132.084 64.0374 131.316C65.5491 130.746 66.4165 129.755 66.4165 128.615C66.4165 127.376 65.3261 126.459 63.5913 126.459C61.9804 126.459 60.8652 127.376 60.8652 128.714C60.8652 129.383 61.1378 130.003 61.8565 130.895C60.2456 131.415 59.5517 132.258 59.5517 133.497C59.5517 135.133 60.8652 136.124 62.9717 136.124C64.1861 136.124 65.3013 135.752 66.2183 135.083C67.1848 135.827 67.9035 136.124 68.5726 136.124C69.7374 136.124 70.4561 135.356 70.5552 134.017L69.3161 133.745ZM63.5913 127.623C64.4339 127.623 64.9543 128.094 64.9543 128.763C64.9543 129.507 64.3843 130.077 63.1948 130.449C62.4761 129.68 62.253 129.309 62.253 128.863C62.253 128.169 62.823 127.623 63.5913 127.623ZM63.0709 134.835C61.8813 134.835 61.0635 134.29 61.0635 133.497C61.0635 132.729 61.5839 132.159 62.6991 131.812C63.6656 132.803 64.4587 133.596 65.1526 134.216C64.533 134.612 63.8391 134.835 63.0709 134.835ZM82.55 126.583V130.449H77.8413V126.583H76.28V136H77.8413V131.886H82.55V136H84.1113V126.583H82.55ZM93.5287 136H95.1891L91.3974 126.583H89.4891L85.6974 136H87.333L88.1757 133.819H92.6861L93.5287 136ZM88.7209 132.431L90.4309 128.02L92.1409 132.431H88.7209ZM104.607 126.583H96.7752V136H98.3365V128.02H103.045V136H104.607V126.583ZM111.248 136.124C113.925 136.124 115.783 134.141 115.783 131.291C115.783 128.367 113.999 126.459 111.248 126.459C108.572 126.459 106.713 128.441 106.713 131.291C106.713 134.216 108.522 136.124 111.248 136.124ZM111.248 134.736C109.464 134.736 108.324 133.398 108.324 131.291C108.324 129.185 109.464 127.847 111.248 127.847C113.008 127.847 114.173 129.185 114.173 131.291C114.173 133.398 113.008 134.736 111.248 134.736ZM116.601 125.542H118.212V124.055H116.601V125.542ZM119.154 125.542H120.765V124.055H119.154V125.542ZM117.89 136H119.451V126.583H117.89V136Z" fill="#25282B"/>
</g>
</svg>
