<svg width="24" height="24" viewBox="0 0 24 24" fill="none" xmlns="http://www.w3.org/2000/svg">
<path d="M23.4844 18.5048H22.0898H19.4333C19.6751 18.1452 19.8521 17.7532 19.9512 17.3467C20.1161 16.6706 20.0559 16.0058 19.7846 15.4333L21.726 13.8685L22.0007 14.2613C22.101 14.4048 22.2611 14.4816 22.4237 14.4816C22.5257 14.4816 22.6288 14.4513 22.7187 14.3885C22.9521 14.2253 23.009 13.9038 22.8459 13.6705L21.6639 11.9799C21.5008 11.7465 21.1793 11.6896 20.9459 11.8527C20.7125 12.0159 20.6556 12.3374 20.8187 12.5707L21.1337 13.0214L19.1679 14.6058C18.8443 14.3145 18.4489 14.1055 18.0038 13.9888C18.8906 12.6517 18.8812 10.9939 17.9879 9.9629L19.4355 7.93139L19.806 8.23551C19.9019 8.31431 20.0177 8.35261 20.1329 8.35261C20.2819 8.35261 20.4298 8.28834 20.5317 8.16412C20.7123 7.944 20.6804 7.61911 20.4603 7.43845L18.8659 6.12965C18.6458 5.94895 18.3209 5.98092 18.1402 6.201C17.9595 6.42112 17.9915 6.74601 18.2115 6.92667L18.6365 7.27551L17.1705 9.33286C15.8939 8.70698 14.169 9.15647 13.0706 10.4887C13.0363 10.5304 13.0028 10.5728 12.97 10.6158C12.3217 10.3959 11.638 10.2816 10.9393 10.2816C6.96961 10.2816 4.29094 12.653 2.97755 17.3297L2.64755 18.5048H1.91016H0.515625C0.230859 18.5048 0 18.7357 0 19.0205C0 19.3052 0.230859 19.5361 0.515625 19.5361H1.5923L3.12666 22.5871C3.21422 22.7612 3.39244 22.8711 3.5873 22.8711H20.4127C20.6075 22.8711 20.7857 22.7612 20.8733 22.5871L22.4077 19.5361H23.4844C23.7691 19.5361 24 19.3052 24 19.0205C24 18.7357 23.7691 18.5048 23.4844 18.5048ZM18.7213 15.648C19.2855 16.4587 18.9964 17.6856 18.0717 18.5048H14.5237C13.938 17.6005 14.3653 16.2463 15.4962 15.4593C16.0683 15.0613 16.7284 14.8697 17.3539 14.9202C17.9421 14.9676 18.4277 15.226 18.7213 15.648ZM17.0226 10.4558C17.8722 11.1563 17.8386 12.6052 16.9478 13.6855C16.8847 13.762 16.8179 13.8352 16.7485 13.9051C16.7191 13.9085 16.6898 13.9122 16.6604 13.9162C16.1901 12.9128 15.4667 12.0532 14.5481 11.4131C14.3553 11.2787 14.1562 11.1562 13.9519 11.0451C14.8456 10.0459 16.1998 9.77718 17.0226 10.4558ZM3.97045 17.6084C5.16014 13.3721 7.43967 11.3128 10.9393 11.3128C12.9258 11.3128 14.7561 12.4536 15.6501 14.1995C15.3933 14.31 15.144 14.448 14.9071 14.6128C13.5254 15.5744 12.9321 17.1975 13.3849 18.5047H3.71878L3.97045 17.6084ZM20.0948 21.8398H3.9052L2.74664 19.5361H21.2534L20.0948 21.8398Z" fill="#25282B"/>
<path d="M5.64844 8.98589C5.5928 8.98589 5.53632 8.97684 5.48086 8.95776C5.21152 8.86518 5.06822 8.57189 5.16075 8.30254L5.56397 7.12917C5.60766 7.00218 5.58792 6.86672 5.50997 6.75745C5.43197 6.64818 5.31024 6.58551 5.17599 6.58551C4.71127 6.58551 4.27266 6.35972 4.00271 5.98143C3.73275 5.60315 3.66169 5.115 3.81267 4.6755L4.21599 3.50212C4.30857 3.23273 4.60177 3.08943 4.87121 3.18211C5.1405 3.27464 5.2838 3.56798 5.19122 3.83733L4.78796 5.01065C4.74436 5.13759 4.76405 5.27311 4.84205 5.38237C4.92005 5.49164 5.04178 5.55431 5.17599 5.55431C5.64071 5.55431 6.07936 5.78011 6.34936 6.15843C6.61931 6.53667 6.69028 7.02487 6.53925 7.46432L6.13608 8.63765C6.06258 8.8515 5.86252 8.98589 5.64844 8.98589Z" fill="#FF8051"/>
<path d="M9.72609 6.96079C9.6705 6.96079 9.61396 6.95175 9.55846 6.93267C9.28917 6.84009 9.14587 6.54679 9.2384 6.2774L9.64162 5.10407C9.68526 4.97714 9.66557 4.84162 9.58757 4.73231C9.50957 4.62309 9.38784 4.56042 9.25364 4.56042C8.78892 4.56042 8.35026 4.33462 8.08026 3.95629C7.81031 3.57806 7.73934 3.08986 7.89037 2.6504L8.29354 1.47707C8.38607 1.20773 8.67951 1.06457 8.94876 1.15697C9.21811 1.24954 9.3614 1.54284 9.26887 1.81218L8.86565 2.98556C8.82196 3.11254 8.8417 3.24801 8.91965 3.35728C8.99765 3.46654 9.11939 3.52921 9.25364 3.52921C9.71836 3.52921 10.157 3.75501 10.4269 4.13325C10.6969 4.51148 10.7679 4.99973 10.6169 5.43923L10.2137 6.61261C10.1402 6.8264 9.94021 6.96079 9.72609 6.96079Z" fill="#FF8051"/>
</svg>
