<svg width="24" height="24" viewBox="0 0 24 24" fill="none" xmlns="http://www.w3.org/2000/svg">
<path d="M18.2593 19.5667L17.8699 10.5116C17.8636 10.3647 17.9203 10.2221 18.0258 10.1196C18.1312 10.0171 18.2753 9.96445 18.422 9.97514C19.3886 10.0447 20.3357 9.69478 21.0202 9.01509C21.7061 8.33409 22.0633 7.38811 22.0005 6.41967C21.9133 5.076 21.0635 3.95808 19.7828 3.50208C18.5044 3.04702 17.1385 3.37922 16.2182 4.36931C16.0797 4.51837 15.8665 4.572 15.6739 4.50623C15.4814 4.44052 15.3455 4.26773 15.3271 4.06514C15.1691 2.3355 13.7389 1.03125 12 1.03125C10.2611 1.03125 8.83081 2.3355 8.67288 4.06509C8.65437 4.26769 8.51852 4.44047 8.32601 4.50619C8.13335 4.572 7.92026 4.51823 7.78179 4.36927C6.86285 3.38062 5.50006 3.04702 4.2252 3.49866C2.94396 3.95259 2.0914 5.06789 2.00013 6.40927C1.93418 7.37944 2.29001 8.328 2.97645 9.01177C3.66101 9.6937 4.60934 10.0447 5.57787 9.97509C5.72421 9.96436 5.86863 10.0171 5.97415 10.1196C6.07962 10.222 6.13634 10.3647 6.13001 10.5115L5.74057 19.5667L4.71026 19.5224L5.07645 11.0074C4.01557 10.9449 3.00846 10.4992 2.24862 9.7424C1.35059 8.84784 0.884977 7.60748 0.971227 6.33928C1.09081 4.581 2.20568 3.12005 3.88076 2.52661C5.24777 2.04234 6.69218 2.24803 7.83148 3.05006C8.06027 2.32786 8.47531 1.67287 9.04413 1.15064C9.8524 0.408609 10.9021 0 12 0C13.0978 0 14.1475 0.408609 14.9558 1.15059C15.5246 1.67283 15.9397 2.32786 16.1685 3.05011C17.3099 2.24691 18.7579 2.04248 20.1287 2.5305C21.8037 3.12689 22.9153 4.5915 23.0296 6.35278C23.1118 7.61864 22.6442 8.85572 21.7469 9.74677C20.9876 10.5008 19.9819 10.9448 18.9235 11.0074L19.2897 19.5224L18.2593 19.5667Z" fill="#25282B"/>
<path d="M18.8959 24H5.104C4.0443 24 3.18213 23.1378 3.18213 22.0781V20.9508C3.18213 19.8911 4.0443 19.029 5.104 19.029H18.896C19.9557 19.029 20.8179 19.8911 20.8179 20.9508V22.0781C20.8178 23.1378 19.9557 24 18.8959 24ZM5.104 20.0602C4.61289 20.0602 4.21338 20.4597 4.21338 20.9508V22.0781C4.21338 22.5692 4.61289 22.9688 5.104 22.9688H18.896C19.3871 22.9688 19.7866 22.5692 19.7866 22.0781V20.9508C19.7866 20.4597 19.3871 20.0602 18.896 20.0602H5.104Z" fill="#FF8051"/>
<path d="M11.9999 11.4539C10.8211 11.4539 9.6422 11.0051 8.74478 10.1077C8.54341 9.90632 8.54341 9.57984 8.74478 9.37846C8.9462 9.17709 9.27259 9.17709 9.47402 9.37846C10.8668 10.7713 13.1331 10.7713 14.5259 9.37846C14.7273 9.17709 15.0537 9.17709 15.2551 9.37846C15.4565 9.57984 15.4565 9.90632 15.2551 10.1077C14.3576 11.0051 13.1787 11.4539 11.9999 11.4539Z" fill="#25282B"/>
</svg>
