<svg width="60" height="24" viewBox="0 0 60 24" fill="none" xmlns="http://www.w3.org/2000/svg">
<g clip-path="url(#clip0_35_465)">
<path d="M28.1838 11.73V18.7724H25.9836V1.3874H31.8204C32.5184 1.37257 33.2121 1.49875 33.8601 1.75839C34.5081 2.01803 35.0971 2.40578 35.5916 2.89842C36.5525 3.81306 37.1166 5.06789 37.1628 6.39367C37.209 7.71945 36.7338 9.01053 35.8389 9.98987L35.5916 10.239C35.0935 10.7254 34.5035 11.1078 33.856 11.3638C33.2085 11.6198 32.5166 11.7443 31.8204 11.73H28.1838ZM28.1838 3.52211V9.5953H31.875C32.281 9.60694 32.6848 9.53188 33.0595 9.3751C33.4342 9.21832 33.7712 8.98345 34.0479 8.68614C34.6005 8.10034 34.9026 7.32204 34.89 6.51685C34.8775 5.71167 34.5512 4.94317 33.9806 4.3749C33.4198 3.82146 32.6629 3.51228 31.875 3.51484L28.1838 3.52211Z" fill="#A0A0A0"/>
<path d="M42.2502 6.48962C43.8776 6.48962 45.1595 6.93329 46.1051 7.80609C47.0506 8.67888 47.5124 9.89897 47.5124 11.4427V18.776H45.4087V17.1232H45.3123C44.4031 18.4814 43.1939 19.1615 41.6756 19.1615C40.3919 19.1615 39.2991 18.7724 38.4372 17.996C38.0176 17.6385 37.6832 17.1917 37.4586 16.6883C37.2339 16.1849 37.1247 15.6377 37.1389 15.0866C37.1202 14.5226 37.2355 13.9622 37.4754 13.4514C37.7153 12.9406 38.073 12.4939 38.519 12.1482C39.4282 11.4209 40.6647 11.0572 42.1957 11.0572C43.5085 11.0572 44.574 11.3082 45.4214 11.7846V11.2591C45.4212 10.8825 45.3399 10.5104 45.183 10.1681C45.0261 9.82579 44.7973 9.52128 44.5122 9.27529C43.9309 8.75114 43.1766 8.4598 42.3939 8.45705C41.1623 8.45705 40.1925 8.98436 39.4846 10.039L37.5481 8.80434C38.5881 7.27332 40.1592 6.48962 42.2502 6.48962ZM39.4082 15.1266C39.4082 15.4089 39.4739 15.6873 39.6002 15.9398C39.7264 16.1923 39.9097 16.4119 40.1355 16.5813C40.6206 16.9675 41.2248 17.1732 41.8447 17.1632C42.3053 17.1625 42.7612 17.0702 43.1857 16.8917C43.6103 16.7131 43.9951 16.4518 44.3177 16.1231C44.6619 15.8136 44.937 15.4351 45.125 15.0121C45.313 14.5891 45.4096 14.1312 45.4087 13.6683C44.725 13.1138 43.7722 12.8374 42.5375 12.8519C41.7402 12.8266 40.9553 13.0544 40.2955 13.5029C39.7082 13.9338 39.4082 14.4757 39.4082 15.1266V15.1266Z" fill="#A0A0A0"/>
<path d="M59.5952 6.87689L52.2419 24H49.9727L52.7074 18.0105L47.8816 6.87689H50.2745L53.7584 15.4175H53.8002L57.2041 6.87689H59.5952Z" fill="#A0A0A0"/>
<path d="M19.2886 10.2045C19.2889 9.52654 19.2341 8.84973 19.125 8.18066H9.85156V12.021H15.1611C15.0541 12.6334 14.8247 13.2179 14.4867 13.7397C14.1486 14.2614 13.7089 14.7096 13.1936 15.0575V17.5523H16.3648C18.2231 15.8194 19.2886 13.2556 19.2886 10.2045Z" fill="#4285F4"/>
<path d="M9.84428 19.9651C12.4954 19.9651 14.7374 19.0778 16.363 17.5522L13.1936 15.0575C12.2003 15.7091 11.032 16.0428 9.84428 16.0139C7.275 16.0139 5.10211 14.2538 4.32205 11.8954H1.04907V14.4756C1.85693 16.1201 3.10879 17.5058 4.66308 18.4759C6.21737 19.446 8.01209 19.9618 9.84428 19.9651V19.9651Z" fill="#34A853"/>
<path d="M4.32206 11.8955C3.91447 10.6553 3.91447 9.3172 4.32206 8.07701V5.50409H1.04909C0.354034 6.89469 -0.0078125 8.42798 -0.0078125 9.98261C-0.0078125 11.5372 0.354034 13.0705 1.04909 14.4611L4.32206 11.8955Z" fill="#FBBC04"/>
<path d="M9.84433 3.95123C10.5414 3.94002 11.2338 4.06715 11.8814 4.32526C12.5291 4.58338 13.1191 4.96736 13.6173 5.45498L16.4321 2.59295C14.6562 0.905995 12.2936 -0.0238937 9.84433 2.2923e-05C8.01211 0.00728284 6.21839 0.526485 4.66558 1.49904C3.11277 2.47159 1.86269 3.85879 1.0564 5.50408L4.32937 8.08427C5.10216 5.71318 7.27323 3.95123 9.84433 3.95123Z" fill="#EA4335"/>
</g>
<defs>
<clipPath id="clip0_35_465">
<rect width="59.5954" height="24" fill="white"/>
</clipPath>
</defs>
</svg>
