<svg width="57" height="24" viewBox="0 0 57 24" fill="none" xmlns="http://www.w3.org/2000/svg">
<g clip-path="url(#clip0_35_427)">
<path d="M10.6933 3.09753C11.4147 2.23314 11.7735 1.12308 11.6945 0C10.5873 0.10527 9.56348 0.634013 8.83669 1.47591C8.4776 1.87926 8.20246 2.3501 8.02734 2.86095C7.85221 3.37179 7.78061 3.91241 7.81671 4.45123C8.36794 4.46155 8.91414 4.34481 9.41299 4.11006C9.91183 3.87531 10.3499 3.52885 10.6933 3.09753" fill="#A0A0A0"/>
<path d="M11.6804 4.66742C10.0916 4.57341 8.73794 5.56989 7.98119 5.56989C7.22443 5.56989 6.05874 4.70032 4.79905 4.73793C3.98148 4.75977 3.18377 4.99456 2.48473 5.4191C1.78569 5.84363 1.20952 6.44322 0.81315 7.15861C-0.893078 10.101 0.343115 14.4677 2.02584 16.8648C2.8296 18.054 3.80257 19.3607 5.08577 19.3137C6.29376 19.2667 6.7685 18.5288 8.23971 18.5288C9.71092 18.5288 10.1198 19.3137 11.4171 19.2902C12.7144 19.2667 13.5793 18.101 14.3831 16.94C14.9554 16.0984 15.4034 15.1786 15.7133 14.2091C14.9495 13.8756 14.2988 13.3278 13.84 12.632C13.3811 11.9363 13.1339 11.1224 13.1281 10.289C13.1325 9.54456 13.3265 8.81347 13.6916 8.16465C14.0567 7.51584 14.581 6.97065 15.215 6.58046C14.8137 6.00944 14.2859 5.53885 13.6728 5.20538C13.0597 4.87191 12.3778 4.68459 11.6804 4.65802" fill="#A0A0A0"/>
<path d="M25.523 1.3584C28.9777 1.3584 31.3843 3.74148 31.3843 7.20564C31.3843 10.6698 28.926 13.0811 25.4336 13.0811H21.6217V19.1633H18.8438V1.3584H25.523ZM21.6217 10.7591H24.7897C27.1963 10.7591 28.55 9.46651 28.55 7.21974C28.55 4.97297 27.1775 3.68977 24.7897 3.68977H21.6217V10.7591Z" fill="#A0A0A0"/>
<path d="M32.1035 15.4735C32.1035 13.2033 33.8473 11.812 36.9308 11.6381L40.4842 11.4265V10.4301C40.4842 8.98235 39.5113 8.12219 37.8802 8.12219C36.3385 8.12219 35.375 8.86014 35.1399 10.0023H32.6253C32.771 7.65215 34.7733 5.92712 37.979 5.92712C41.1846 5.92712 43.1493 7.59575 43.1493 10.1997V19.1304H40.5829V17.0294H40.5218C40.1118 17.7523 39.5151 18.3519 38.7941 18.7653C38.0731 19.1787 37.2542 19.3909 36.4231 19.3795C33.8849 19.3889 32.1035 17.8049 32.1035 15.4735ZM40.4842 14.3032V13.2785L37.288 13.4759C35.6946 13.5887 34.7968 14.2891 34.7968 15.403C34.7968 16.517 35.7369 17.2832 37.147 17.2832C39.013 17.2785 40.4842 15.9812 40.4842 14.3032Z" fill="#A0A0A0"/>
<path d="M45.5512 23.9389V21.7814C45.8361 21.8212 46.1238 21.8369 46.4114 21.8284C47.6476 21.8284 48.315 21.3114 48.7192 19.9812C48.7192 19.953 48.9543 19.1915 48.9543 19.1774L44.2539 6.18097H47.1399L50.4302 16.7474H50.4819L53.7721 6.18097H56.5923L51.704 19.8449C50.5947 22.9894 49.3115 24 46.6229 24C46.2648 23.9987 45.9071 23.9783 45.5512 23.9389V23.9389Z" fill="#A0A0A0"/>
</g>
<defs>
<clipPath id="clip0_35_427">
<rect width="56.5828" height="24" fill="white"/>
</clipPath>
</defs>
</svg>
