<svg width="24" height="24" viewBox="0 0 24 24" fill="none" xmlns="http://www.w3.org/2000/svg">
<g clip-path="url(#clip0_27_64)">
<path d="M20.0031 7.02337C19.8797 6.17142 19.4532 5.39198 18.8023 4.82864C18.1514 4.26529 17.3189 3.95498 16.4581 3.95498H14.2795L14.6284 2.70947C14.7753 2.18484 14.6708 1.63495 14.3416 1.20079C14.0124 0.766685 13.511 0.517685 12.9662 0.517685H11.3261C10.7812 0.517685 10.2799 0.766685 9.95074 1.20079C9.62154 1.6349 9.51701 2.18479 9.66396 2.70947L10.0129 3.95498H7.54198C6.68112 3.95498 5.84862 4.26525 5.19771 4.82864C4.5468 5.39203 4.12038 6.17142 3.99691 7.02337L3.82849 8.18559L4.84905 8.33348L5.01748 7.17126C5.19799 5.92556 6.28329 4.98623 7.54193 4.98623H16.458C17.7167 4.98623 18.802 5.92561 18.9825 7.17126L19.1509 8.33348L20.1715 8.18559L20.0031 7.02337ZM10.657 2.43131C10.5978 2.22009 10.6399 1.99875 10.7725 1.82395C10.905 1.64915 11.1068 1.54893 11.3261 1.54893H12.9663C13.1856 1.54893 13.3874 1.64915 13.5199 1.82395C13.6525 1.9987 13.6946 2.22009 13.6354 2.43131L13.2086 3.95498H11.0839L10.657 2.43131Z" fill="#FF8051"/>
<path d="M22.0061 13.4224H20.658V11.7809C21.3552 11.6735 21.8908 11.0694 21.8908 10.3426V9.19916C21.8908 8.39671 21.2379 7.74393 20.4355 7.74393H3.56447C2.76206 7.74393 2.10923 8.39676 2.10923 9.19916V10.3426C2.10923 11.0694 2.64478 11.6735 3.34195 11.7809V13.4224H1.99388C0.894469 13.4224 0 14.3168 0 15.4163C0 16.5157 0.894469 17.4102 1.99388 17.4102H3.34195V21.0502C3.34195 22.3913 4.4332 23.4823 5.77453 23.4823H18.2255C19.5668 23.4823 20.6581 22.3913 20.6581 21.0502V17.4102H22.0062C23.1056 17.4102 24 16.5157 24 15.4163C24 14.3168 23.1055 13.4224 22.0061 13.4224ZM3.14048 10.3426V9.19916C3.14048 8.96535 3.3307 8.77518 3.56447 8.77518H20.4356C20.6693 8.77518 20.8596 8.9654 20.8596 9.19916V10.3426C20.8596 10.5764 20.6693 10.7666 20.4356 10.7666H3.56447C3.33066 10.7666 3.14048 10.5764 3.14048 10.3426ZM1.99388 16.3789C1.46306 16.3789 1.03125 15.9471 1.03125 15.4162C1.03125 14.8854 1.46306 14.4536 1.99388 14.4536H3.34195V16.3789H1.99388ZM19.6268 21.0502C19.6268 21.8226 18.9982 22.451 18.2255 22.451H5.77448C5.0018 22.451 4.37316 21.8226 4.37316 21.0502V11.7979H19.6268V21.0502H19.6268ZM22.0061 16.3789H20.658V14.4536H22.0061C22.5369 14.4536 22.9688 14.8854 22.9688 15.4162C22.9688 15.9471 22.5369 16.3789 22.0061 16.3789Z" fill="#25282B"/>
<path d="M14.0629 20.5384H9.93701C8.87731 20.5384 8.01514 19.6762 8.01514 18.6165V15.6324C8.01514 14.5727 8.87731 13.7106 9.93701 13.7106H14.063C15.1227 13.7106 15.9849 14.5727 15.9849 15.6324V18.6165C15.9848 19.6762 15.1227 20.5384 14.0629 20.5384ZM9.93701 14.7418C9.4459 14.7418 9.04639 15.1413 9.04639 15.6324V18.6165C9.04639 19.1076 9.4459 19.5071 9.93701 19.5071H14.063C14.5541 19.5071 14.9536 19.1076 14.9536 18.6165V15.6324C14.9536 15.1413 14.5541 14.7418 14.063 14.7418H9.93701Z" fill="#FF8051"/>
<path d="M12.5503 17.6401H11.4497C11.1649 17.6401 10.9341 17.4092 10.9341 17.1245C10.9341 16.8397 11.1649 16.6088 11.4497 16.6088H12.5503C12.8351 16.6088 13.0659 16.8397 13.0659 17.1245C13.0659 17.4092 12.8351 17.6401 12.5503 17.6401Z" fill="#FF8051"/>
</g>
<defs>
<clipPath id="clip0_27_64">
<rect width="24" height="24" fill="white"/>
</clipPath>
</defs>
</svg>
