<svg width="24" height="24" viewBox="0 0 24 24" fill="none" xmlns="http://www.w3.org/2000/svg">
<path d="M4.7808 9.9728L3.90564 9.42722C4.02255 9.23972 4.1612 9.06323 4.31786 8.90269C4.44456 8.77284 4.46744 8.56528 4.37355 8.3978C3.6205 7.05342 4.09675 5.31178 5.45767 4.43264C5.60308 4.33884 5.68051 4.176 5.6552 4.01766C5.40742 2.4645 6.49206 0.938344 8.12448 0.542953C9.75691 0.147422 11.42 1.00758 11.9104 2.50205C11.9603 2.65448 12.1039 2.76389 12.2761 2.78086C13.8895 2.93958 15.1102 4.27092 15.0548 5.81184C15.048 6.00253 15.163 6.17588 15.3347 6.2332C15.5477 6.30441 15.7519 6.39792 15.9416 6.51117L15.4129 7.39659C15.2869 7.32136 15.1506 7.25902 15.0078 7.21134C14.4055 7.01006 14.0011 6.41934 14.0242 5.77481C14.0601 4.77694 13.2478 3.91266 12.175 3.80714C11.5961 3.75005 11.1077 3.36389 10.9305 2.82333C10.6067 1.83661 9.48053 1.27505 8.36739 1.54519C7.25387 1.81486 6.50997 2.82942 6.67356 3.855C6.76333 4.41689 6.50561 4.98375 6.01703 5.29898C5.11239 5.88333 4.78558 7.02309 5.27322 7.89361C5.58901 8.457 5.49972 9.16805 5.056 9.62283C4.95109 9.73036 4.85847 9.84811 4.7808 9.9728Z" fill="#FF8051"/>
<path d="M23.4844 14.4802H22.8585L22.3548 14.1692L21.7965 14.4802H16.9847C17.2314 13.9796 17.3626 13.4258 17.3626 12.8565C17.3626 12.5689 17.3294 12.2889 17.2667 12.0202C17.2657 12.016 17.2619 12.0064 17.2613 12.0019C17.236 11.8086 17.5604 11.3216 17.4929 11.1538C17.4238 10.9821 16.8451 10.9765 16.8404 10.9687C16.4102 10.2521 15.7432 9.69333 14.9482 9.40144C14.985 7.9732 16.1574 6.82247 17.5943 6.82247C19.0543 6.82247 20.242 8.01023 20.242 9.4702C20.242 9.86484 20.1575 10.2442 19.9908 10.5979L20.9235 11.0377C21.1556 10.5455 21.2733 10.0181 21.2733 9.47025C21.2733 7.44164 19.6229 5.79127 17.5943 5.79127C15.6613 5.79127 14.0728 7.29009 13.9273 9.18647C13.8466 9.18117 13.7655 9.17752 13.6836 9.17752C12.612 9.17752 11.6463 9.63825 10.9733 10.3717C10.4685 8.32908 10.2819 6.4988 10.2798 6.47738C10.2515 6.19406 9.99924 5.98767 9.71559 6.01542C9.43228 6.04364 9.22542 6.29611 9.25359 6.57947C9.26395 6.68395 9.51108 9.11288 10.2313 11.5849C10.0848 11.9814 10.0045 12.4098 10.0045 12.8566C10.0045 13.0285 10.0167 13.199 10.0402 13.3671L3.14906 8.14894C3.04003 8.06639 2.90273 8.03067 2.76722 8.04923C2.63175 8.06794 2.50927 8.13975 2.42672 8.24873C1.06055 10.053 0.705609 12.378 1.43344 14.4802H0.515625C0.230859 14.4802 0 14.7111 0 14.9958V15.1012C0 17.7816 1.91648 20.0225 4.45102 20.5263V23.0374C4.45102 23.3221 4.68188 23.553 4.96664 23.553H19.0376C19.3223 23.553 19.5532 23.3221 19.5532 23.0374V20.5255C22.0857 20.02 24 17.7802 24 15.1013V14.9959C24 14.7111 23.7691 14.4802 23.4844 14.4802ZM13.6836 10.2087C15.1436 10.2087 16.3313 11.3965 16.3313 12.8565C16.3313 13.4483 16.1345 14.0169 15.7738 14.4802H11.5934C11.2327 14.0169 11.0358 13.4483 11.0358 12.8565C11.0358 11.3965 12.2236 10.2087 13.6836 10.2087ZM5.44472 11.1808L6.86902 12.2593L9.47302 14.231C9.36853 14.3229 9.25645 14.406 9.13748 14.4802H6.40359C6.33834 14.4394 6.27478 14.3961 6.21412 14.3502C5.66512 13.9345 5.31089 13.3299 5.21667 12.6478C5.14641 12.1393 5.22694 11.633 5.44472 11.1808ZM2.95598 9.2963L4.61105 10.5495C4.23431 11.2281 4.08703 12.0065 4.19517 12.789C4.28152 13.4139 4.5247 13.9919 4.89727 14.4802H2.53631C1.82386 12.7752 1.98239 10.8542 2.95598 9.2963ZM18.522 22.5218H5.48227V20.6319C5.49863 20.6321 5.51489 20.6325 5.53125 20.6325H18.4688C18.4865 20.6325 18.5042 20.632 18.522 20.6318V22.5218ZM18.4688 19.6013H5.53125C3.18825 19.6013 1.25766 17.8013 1.04981 15.5115H22.9502C22.7423 17.8012 20.8118 19.6013 18.4688 19.6013Z" fill="#25282B"/>
<path d="M17.2614 12.0019C17.7617 11.4315 18.4897 11.0962 19.2538 11.0962C20.7137 11.0962 21.9015 12.284 21.9015 13.7439C21.9015 13.9957 21.8657 14.242 21.7966 14.4802H22.8586C22.9077 14.2395 22.9328 13.9935 22.9328 13.7439C22.9328 11.7153 21.2824 10.0649 19.2538 10.0649C18.3612 10.0649 17.5036 10.3935 16.8401 10.9689C17.0301 11.2856 17.1733 11.6332 17.2614 12.0019Z" fill="#FF8051"/>
</svg>
